PathFileType	4	(X/Y/Z)	C:/Users/opensim2020/Desktop/walking_exp_matlab/subject03_walking12_straight_03.trc	
DataRate	CameraRate	NumFrames	NumMarkers	Units	OrigDataRate	OrigDataStartFrame	OrigNumFrames	
100.00	100.00	4	48	mm	100.00	1797	185	
Frame#	Time	LFHD			RFHD			LBHD			RBHD			C7			T10			CLAV			STRN			RBAK			LSHO			LUPA			LELB			LFRM			LWRA			LWRB			LFIN			RSHO			RUPA			RELB			RFRM			RWRA			RWRB			RFIN			LASI			RASI			LPSI			RPSI			LTHI			LKNE			LTIB			LANK			LHEE			LTOE			RTHI			RKNE			RTIB			RANK			RHEE			RTOE			*39			*40			*41			*42			*43			*44			*45			*46			*47			
		X1	Y1	Z1	X2	Y2	Z2	X3	Y3	Z3	X4	Y4	Z4	X5	Y5	Z5	X6	Y6	Z6	X7	Y7	Z7	X8	Y8	Z8	X9	Y9	Z9	X10	Y10	Z10	X11	Y11	Z11	X12	Y12	Z12	X13	Y13	Z13	X14	Y14	Z14	X15	Y15	Z15	X16	Y16	Z16	X17	Y17	Z17	X18	Y18	Z18	X19	Y19	Z19	X20	Y20	Z20	X21	Y21	Z21	X22	Y22	Z22	X23	Y23	Z23	X24	Y24	Z24	X25	Y25	Z25	X26	Y26	Z26	X27	Y27	Z27	X28	Y28	Z28	X29	Y29	Z29	X30	Y30	Z30	X31	Y31	Z31	X32	Y32	Z32	X33	Y33	Z33	X34	Y34	Z34	X35	Y35	Z35	X36	Y36	Z36	X37	Y37	Z37	X38	Y38	Z38	X39	Y39	Z39	X40	Y40	Z40	X41	Y41	Z41	X42	Y42	Z42	X43	Y43	Z43	X44	Y44	Z44	X45	Y45	Z45	X46	Y46	Z46	X47	Y47	Z47	X48	Y48	Z48	

139	1.380	-1017.73480	668.92450	1598.65198	-890.17847	631.82452	1592.37561	-1052.18176	545.96350	1554.68542	-925.54370	514.40466	1547.94006	-999.38879	507.57852	1380.84534	-1001.37872	502.00638	1065.05078	-986.73248	634.09949	1314.84351	-994.50043	695.65051	1155.85986	-917.68848	462.33832	1195.44336	-1143.97998	594.91693	1352.43787	-1226.07288	649.91803	1175.24341	-1238.21948	710.63513	1071.79626	-1211.44922	817.75183	1013.06934	-1153.52539	911.64117	967.10510	-1201.87207	906.86462	941.80670	-1175.94629	983.20105	926.18494	-831.98151	566.56891	1331.22473	-772.37793	530.27356	1109.65320	-762.56146	521.89923	995.98669	-761.62177	500.57294	860.07800	-794.01074	507.62677	757.69873	-755.24713	469.21722	763.91547	-770.74670	461.89536	687.50458	-1118.13550	667.51508	905.29529	-879.96411	678.74225	919.89526	-1059.17493	508.23120	925.96906	-911.83942	514.41010	938.07288	-1169.02612	577.97992	607.00256	-1152.18005	548.35284	428.72949	-1144.19116	383.38837	311.79822	-1102.48474	229.84485	174.18974	-1060.26648	188.21581	192.80917	-1072.20532	264.02933	29.04934	-834.49951	710.20087	634.79816	-882.80267	791.75214	478.01608	-875.86902	776.95923	282.50305	-919.98486	758.60107	68.54198	-968.35742	708.32477	37.13074	-940.35333	895.22839	33.35354	-987.30737	573.95129	1654.33154																								 
140	1.390	-1016.30518	682.65637	1599.49524	-888.68573	645.65155	1593.15723	-1050.72192	559.49750	1556.01257	-924.07361	528.00537	1549.19946	-997.60681	520.52417	1381.45642	-1000.26959	516.14197	1065.90088	-985.70868	647.50812	1316.04761	-993.89514	709.43811	1157.21814	-915.96429	476.58347	1196.23096	-1142.54211	607.13501	1353.75378	-1224.67078	661.85370	1176.36255	-1236.51538	720.79883	1071.97583	-1210.86621	827.34247	1011.88562	-1153.83069	921.28638	965.59186	-1201.45251	915.74963	939.55127	-1176.44409	992.17535	924.03351	-830.61444	580.75226	1332.49768	-770.72784	545.50159	1110.81738	-760.60785	537.93811	997.15033	-759.05359	517.75629	861.24384	-790.92413	525.82861	758.67505	-752.74066	487.03601	764.74573	-767.73779	479.76456	688.41211	-1117.21082	681.18134	905.64368	-878.95831	693.11664	922.05585	-1058.30359	522.06781	926.03125	-911.07831	528.75403	939.92480	-1168.28735	598.04437	604.67499	-1152.07874	574.11505	426.10242	-1143.64563	407.90735	313.43341	-1103.15491	251.24722	180.16388	-1061.62000	211.48004	204.54446	-1070.24060	271.80182	33.85104	-832.64453	722.93854	636.43170	-881.63928	800.73218	477.59253	-874.68860	780.86682	282.25476	-919.79730	758.32501	68.61030	-968.07281	707.88776	37.10839	-940.35577	895.18616	33.19104	-985.78125	587.90424	1655.50940																								 
141	1.400	-1014.91461	696.38702	1600.64490	-887.28119	659.42572	1594.21948	-1049.27844	572.98834	1557.68127	-922.63477	541.57263	1550.78479	-995.90973	533.39868	1382.51025	-999.10706	529.93512	1067.03259	-984.86298	660.76794	1317.50049	-993.59723	722.99512	1158.84387	-914.04663	490.70450	1197.30701	-1141.28406	619.15851	1355.28198	-1222.70459	673.31525	1177.29138	-1234.87634	730.80902	1072.24805	-1210.39368	836.65637	1010.53009	-1154.04956	930.61804	963.55414	-1201.29102	924.05945	936.93768	-1177.12097	1000.61298	920.70929	-829.35114	594.94794	1333.80908	-768.95972	560.91302	1112.15271	-758.45880	554.18738	998.43927	-756.68268	535.28473	862.26453	-787.95227	544.55725	759.76416	-750.13531	505.46625	765.58374	-765.08270	498.80591	689.12097	-1116.27722	694.63440	906.32562	-878.19818	707.16992	924.10699	-1057.59021	535.47443	926.34760	-910.44257	542.57117	942.02820	-1167.55090	617.85510	602.99536	-1151.80103	600.21844	423.83765	-1144.14929	433.85980	314.01764	-1102.55408	273.57349	186.82825	-1061.97778	236.29985	215.52573	-1069.61157	283.71613	39.88746	-831.05347	733.32977	637.43793	-880.13239	808.25488	476.92505	-873.68439	783.67023	281.80923	-919.71771	758.00995	68.66978	-967.82135	707.93317	37.18968	-940.12775	895.11371	33.00055	-984.17859	601.89441	1656.94507																								 
142	1.410	-1013.53931	710.05878	1602.00330	-885.87878	673.18842	1595.50281	-1047.89978	586.47107	1559.69775	-921.25098	555.11749	1552.72119	-994.20001	546.30115	1383.94543	-997.89172	543.67816	1068.64893	-984.15906	673.86462	1319.24207	-993.42218	736.36487	1160.61780	-911.95557	504.78320	1198.71863	-1140.23438	631.04419	1356.99341	-1221.18909	684.70123	1178.37183	-1233.34900	740.64044	1072.59619	-1209.84021	845.65308	1009.02179	-1154.27832	939.53839	960.94379	-1201.09229	931.86749	934.02167	-1177.85034	1008.28339	916.13232	-828.18927	609.27515	1335.35339	-767.13641	576.68585	1113.70056	-756.14252	570.66321	999.87189	-754.12616	553.48621	863.47888	-785.09204	564.04773	761.07611	-747.43658	524.70032	766.42450	-762.36188	518.76294	689.88184	-1115.68127	707.65302	907.28992	-877.62256	721.00250	926.07233	-1056.93433	548.69568	926.98419	-909.81970	556.21631	944.39307	-1166.90405	637.24805	602.50415	-1151.82092	626.60046	422.70572	-1144.92944	460.65036	313.91928	-1100.44348	296.24881	193.77933	-1058.92920	260.23615	223.70537	-1071.03687	302.18100	46.30154	-829.82800	742.30414	637.86279	-878.27570	814.17285	475.80292	-872.27148	786.18024	281.23965	-919.61029	757.79437	68.64549	-967.69214	707.83887	37.27791	-940.08868	895.08264	32.89793	-982.59985	615.92603	1658.66406																								 
